# Blender v2.59 (sub 0) OBJ File: 'terrain.blend'
# www.blender.org
mtllib terrain.mtl
v 4.199928 -0.547610 7.486380
v 3.088817 -0.547610 7.486380
v 1.977705 -0.547610 7.486380
v 0.866594 -0.547610 7.486380
v -0.244517 -0.547610 7.486380
v -1.355628 -0.547610 7.486380
v -2.466739 -0.547610 7.486380
v -3.577850 -0.547610 7.486380
v -4.688962 -0.547610 7.486380
v -5.800073 -0.547610 7.486380
v -5.800073 -0.547610 6.375268
v -4.688962 -0.547610 6.375268
v -3.577850 -0.547610 6.375268
v -2.466739 -0.547610 6.375268
v -1.355628 -0.547610 6.375268
v -0.244517 -0.547610 6.375268
v 0.866594 -0.547610 6.375268
v 1.977705 -0.547610 6.375268
v 3.088817 -0.547610 6.375268
v 4.199928 -0.547610 6.375268
v 4.199928 -0.547610 5.264157
v 3.088817 -0.547610 5.264157
v 1.977705 -0.547610 5.264157
v 0.866594 -0.547610 5.264157
v -0.311401 0.281109 4.947162
v -1.422513 0.281109 4.947162
v -2.641759 0.310768 4.950152
v -3.752870 0.310768 4.950152
v -4.688962 -0.547610 5.264157
v -5.800073 -0.547610 5.264157
v -5.800073 -0.547610 4.153046
v -4.688962 -0.547610 4.153046
v -3.752870 0.310768 3.839041
v -2.641759 0.310768 3.839041
v -1.422513 0.281109 3.836051
v -0.311401 0.281109 3.836051
v 0.866594 -0.547610 4.153046
v 1.977705 -0.547610 4.153046
v 3.088817 -0.547610 4.153046
v 4.199928 -0.547610 4.153046
v 4.199928 -0.547610 3.041935
v 3.088817 -0.547610 3.041935
v 1.977705 -0.547610 3.041935
v 0.866594 -0.547610 3.041935
v -0.244517 -0.547610 3.041935
v -1.355628 -0.547610 3.041935
v -2.466739 -0.547610 3.041935
v -3.577850 -0.547610 3.041935
v -4.688962 -0.547610 3.041935
v -5.800073 -0.547610 3.041935
v -5.800073 -0.547610 1.930824
v -4.688962 -0.547610 1.930824
v -3.577850 -0.547610 1.930824
v -2.466739 -0.547610 1.930824
v -1.355628 -0.547610 1.930824
v -0.244517 -0.547610 1.930824
v 0.866594 -0.547610 1.930824
v 1.977705 -0.547610 1.930824
v 3.088817 -0.547610 1.930824
v 4.199928 -0.547610 1.930824
v 4.199928 -0.547610 0.819713
v 3.088817 -0.547610 0.819713
v 1.977705 -0.547610 0.819713
v 0.866594 -0.547610 0.819713
v -0.244517 -0.547610 0.819713
v -1.355628 -0.547610 0.819713
v -2.466739 -0.547610 0.819713
v -3.577850 -0.547610 0.819713
v -4.688962 -0.547610 0.819713
v -5.800073 -0.547610 0.819713
v -5.800073 -0.547610 -0.291399
v -4.688962 -0.547610 -0.291399
v -3.577850 -0.547610 -0.291399
v -2.466739 -0.547610 -0.291399
v -1.355628 -0.547610 -0.291399
v -0.244517 -0.547610 -0.291399
v 0.866594 -0.547610 -0.291399
v 1.977705 -0.547610 -0.291399
v 2.981323 -0.215349 -0.593814
v 4.092434 -0.215349 -0.593814
v 4.092434 -0.215349 -1.704925
v 2.981323 -0.215349 -1.704925
v 1.977705 -0.547610 -1.402510
v 0.866594 -0.547610 -1.402510
v -0.244517 -0.547610 -1.402510
v -1.355628 -0.547610 -1.402510
v -2.466739 -0.547610 -1.402510
v -3.577850 -0.547610 -1.402510
v -4.688962 -0.547610 -1.402510
v -5.800073 -0.547610 -1.402510
v -5.800073 -0.547610 -2.513621
v -4.688962 -0.547610 -2.513621
v -3.577850 -0.547610 -2.513621
v -2.466739 -0.547610 -2.513621
v -1.355628 -0.547610 -2.513621
v -0.244517 -0.547610 -2.513621
v 0.866594 -0.547610 -2.513621
v 1.977705 -0.547610 -2.513621
v 3.088817 -0.547610 -2.513621
v 4.199928 -0.547610 -2.513621
vn 0.000000 0.924972 -0.380034
vn -0.314287 0.949328 0.000000
vn 0.000000 1.000000 -0.000000
vn 0.000000 0.973468 0.228822
vn -0.239383 0.940953 0.239383
vn -0.675850 0.737039 0.000000
vn 0.000000 0.680470 -0.732776
vn 0.014798 0.682014 -0.731190
vn 0.000000 0.691872 -0.722020
vn 0.569856 0.592054 -0.569856
vn 0.575381 0.817885 -0.000000
vn 0.024319 0.999704 0.000000
vn -0.492608 0.717408 0.492608
vn 0.000000 0.856614 0.515957
vn 0.000000 0.864922 0.501907
vn 0.022122 0.857603 0.513836
vn 0.436256 0.786996 0.436256
usemtl 
s off
f 82//1 81//1 99//1
f 81//1 100//1 99//1
f 83//2 82//2 98//2
f 82//1 99//1 98//1
f 84//3 83//3 98//3
f 84//3 98//3 97//3
f 85//3 84//3 97//3
f 85//3 97//3 96//3
f 86//3 85//3 96//3
f 86//3 96//3 95//3
f 87//3 86//3 95//3
f 87//3 95//3 94//3
f 88//3 87//3 94//3
f 88//3 94//3 93//3
f 89//3 88//3 93//3
f 89//3 93//3 92//3
f 90//3 89//3 92//3
f 90//3 92//3 91//3
f 71//3 72//3 89//3
f 71//3 89//3 90//3
f 72//3 73//3 88//3
f 72//3 88//3 89//3
f 73//3 74//3 87//3
f 73//3 87//3 88//3
f 74//3 75//3 86//3
f 74//3 86//3 87//3
f 75//3 76//3 85//3
f 75//3 85//3 86//3
f 76//3 77//3 84//3
f 76//3 84//3 85//3
f 77//3 78//3 83//3
f 77//3 83//3 84//3
f 78//2 79//2 83//2
f 79//2 82//2 83//2
f 79//3 80//3 81//3
f 79//3 81//3 82//3
f 62//4 61//4 80//4
f 62//4 80//4 79//4
f 63//3 62//3 78//3
f 62//5 79//5 78//5
f 64//3 63//3 78//3
f 64//3 78//3 77//3
f 65//3 64//3 77//3
f 65//3 77//3 76//3
f 66//3 65//3 76//3
f 66//3 76//3 75//3
f 67//3 66//3 75//3
f 67//3 75//3 74//3
f 68//3 67//3 74//3
f 68//3 74//3 73//3
f 69//3 68//3 73//3
f 69//3 73//3 72//3
f 70//3 69//3 72//3
f 70//3 72//3 71//3
f 51//3 52//3 69//3
f 51//3 69//3 70//3
f 52//3 53//3 68//3
f 52//3 68//3 69//3
f 53//3 54//3 67//3
f 53//3 67//3 68//3
f 54//3 55//3 66//3
f 54//3 66//3 67//3
f 55//3 56//3 65//3
f 55//3 65//3 66//3
f 56//3 57//3 64//3
f 56//3 64//3 65//3
f 57//3 58//3 63//3
f 57//3 63//3 64//3
f 58//3 59//3 62//3
f 58//3 62//3 63//3
f 59//3 60//3 61//3
f 59//3 61//3 62//3
f 42//3 41//3 60//3
f 42//3 60//3 59//3
f 43//3 42//3 59//3
f 43//3 59//3 58//3
f 44//3 43//3 58//3
f 44//3 58//3 57//3
f 45//3 44//3 57//3
f 45//3 57//3 56//3
f 46//3 45//3 56//3
f 46//3 56//3 55//3
f 47//3 46//3 55//3
f 47//3 55//3 54//3
f 48//3 47//3 54//3
f 48//3 54//3 53//3
f 49//3 48//3 53//3
f 49//3 53//3 52//3
f 50//3 49//3 52//3
f 50//3 52//3 51//3
f 31//3 32//3 49//3
f 31//3 49//3 50//3
f 32//6 33//6 49//6
f 33//7 48//7 49//7
f 33//7 34//7 48//7
f 34//7 47//7 48//7
f 34//8 35//8 47//8
f 35//9 46//9 47//9
f 35//9 36//9 46//9
f 36//9 45//9 46//9
f 36//10 37//10 45//10
f 37//3 44//3 45//3
f 37//3 38//3 43//3
f 37//3 43//3 44//3
f 38//3 39//3 42//3
f 38//3 42//3 43//3
f 39//3 40//3 41//3
f 39//3 41//3 42//3
f 22//3 21//3 40//3
f 22//3 40//3 39//3
f 23//3 22//3 39//3
f 23//3 39//3 38//3
f 24//3 23//3 38//3
f 24//3 38//3 37//3
f 25//11 24//11 37//11
f 25//11 37//11 36//11
f 26//3 25//3 36//3
f 26//3 36//3 35//3
f 27//12 26//12 34//12
f 26//12 35//12 34//12
f 28//3 27//3 34//3
f 28//3 34//3 33//3
f 29//6 28//6 32//6
f 28//6 33//6 32//6
f 30//3 29//3 32//3
f 30//3 32//3 31//3
f 11//3 12//3 29//3
f 11//3 29//3 30//3
f 12//3 13//3 29//3
f 13//13 28//13 29//13
f 13//14 14//14 27//14
f 13//14 27//14 28//14
f 14//15 15//15 26//15
f 14//16 26//16 27//16
f 15//15 16//15 25//15
f 15//15 25//15 26//15
f 16//3 17//3 24//3
f 16//17 24//17 25//17
f 17//3 18//3 23//3
f 17//3 23//3 24//3
f 18//3 19//3 22//3
f 18//3 22//3 23//3
f 19//3 20//3 21//3
f 19//3 21//3 22//3
f 2//3 1//3 20//3
f 2//3 20//3 19//3
f 3//3 2//3 19//3
f 3//3 19//3 18//3
f 4//3 3//3 18//3
f 4//3 18//3 17//3
f 5//3 4//3 17//3
f 5//3 17//3 16//3
f 6//3 5//3 16//3
f 6//3 16//3 15//3
f 7//3 6//3 15//3
f 7//3 15//3 14//3
f 8//3 7//3 14//3
f 8//3 14//3 13//3
f 9//3 8//3 13//3
f 9//3 13//3 12//3
f 10//3 9//3 12//3
f 10//3 12//3 11//3
